<svg width="28" height="28" viewBox="0 0 28 28" fill="none" xmlns="http://www.w3.org/2000/svg">
<path d="M14 28C21.732 28 28 21.732 28 14C28 6.26801 21.732 0 14 0C6.26801 0 0 6.26801 0 14C0 21.732 6.26801 28 14 28Z" fill="url(#paint0_linear_1248_14608)"/>
<path d="M17.0784 6.41797H11.1619C8.5384 6.41797 6.41406 8.54232 6.41406 11.1658V17.0884C6.41406 19.7119 8.5384 21.8362 11.1619 21.8362H17.0784C19.7019 21.8362 21.8262 19.7119 21.8262 17.0884V11.1719C21.8262 8.5484 19.7019 6.42406 17.0845 6.41797H17.0784ZM20.3471 16.5162C20.3471 18.6345 18.6306 20.3571 16.5123 20.3571H11.728C9.60971 20.3571 7.8871 18.6406 7.8871 16.5223V11.738C7.8871 9.61971 9.60363 7.8971 11.728 7.8971H16.5062C18.6245 7.8971 20.3471 9.61362 20.3471 11.738V16.5162Z" fill="white"/>
<path d="M14.3256 10.0938C12.0856 10.0938 10.2656 11.9137 10.2656 14.1537C10.2656 16.3937 12.0856 18.2137 14.3256 18.2137C16.5656 18.2137 18.3856 16.3937 18.3856 14.1537C18.3856 11.9137 16.5656 10.0938 14.3256 10.0938ZM14.3256 16.6007C12.9743 16.6007 11.8848 15.5051 11.8848 14.1598C11.8848 12.8146 12.9804 11.719 14.3256 11.719C15.6709 11.719 16.7665 12.8146 16.7665 14.1598C16.7665 15.5111 15.6709 16.6007 14.3256 16.6007Z" fill="white"/>
<path d="M19.1438 10.027C19.1438 10.5991 18.6812 11.0618 18.109 11.0618C17.5368 11.0618 17.0742 10.5991 17.0742 10.027C17.0742 9.4548 17.5368 8.99219 18.109 8.99219C18.6812 8.99219 19.1438 9.4548 19.1438 10.027Z" fill="white"/>
<defs>
<linearGradient id="paint0_linear_1248_14608" x1="23.3333" y1="3.79167" x2="6.41667" y2="25.9583" gradientUnits="userSpaceOnUse">
<stop stop-color="#673DC6"/>
<stop offset="0.521984" stop-color="#EA2B7D"/>
<stop offset="1" stop-color="#F49553"/>
</linearGradient>
</defs>
</svg>
